<?xml version="1.0" encoding="UTF-8"?>
<svg version="1.1" xmlns="http://www.w3.org/2000/svg" width="225" height="225">
<path d="M0 0 C74.25 0 148.5 0 225 0 C225 74.25 225 148.5 225 225 C150.75 225 76.5 225 0 225 C0 150.75 0 76.5 0 0 Z " fill="#FEFEFE" transform="translate(0,0)"/>
<path d="M0 0 C9.70561728 1.70068218 18.8682862 4.09820284 27.73632812 8.4921875 C33.96208258 10.75297471 38.89387947 8.67987778 44.7824707 6.40258789 C60.47606868 0.34742869 80.30368212 -4.91773442 97.27539062 -2.22265625 C98.92773438 -1.05566406 98.92773438 -1.05566406 100.27539062 0.77734375 C100.6159668 3.4128418 100.6159668 3.4128418 100.56835938 6.5390625 C100.55869141 7.65732422 100.54902344 8.77558594 100.5390625 9.92773438 C100.51392578 11.09498047 100.48878906 12.26222656 100.46289062 13.46484375 C100.44935547 14.64369141 100.43582031 15.82253906 100.421875 17.03710938 C100.38648388 19.95097786 100.33710872 22.8639332 100.27539062 25.77734375 C101.92539063 25.77734375 103.57539063 25.77734375 105.27539062 25.77734375 C105.27539062 31.05734375 105.27539062 36.33734375 105.27539062 41.77734375 C103.62539062 41.77734375 101.97539062 41.77734375 100.27539062 41.77734375 C100.2989563 42.98064331 100.2989563 42.98064331 100.32299805 44.20825195 C100.38527645 47.83537779 100.42435926 51.46239124 100.46289062 55.08984375 C100.48802734 56.35248047 100.51316406 57.61511719 100.5390625 58.91601562 C100.55356445 60.72875977 100.55356445 60.72875977 100.56835938 62.578125 C100.59192505 64.25128784 100.59192505 64.25128784 100.6159668 65.95825195 C100.27539062 68.77734375 100.27539062 68.77734375 99.02954102 70.62792969 C96.87720407 72.03825708 95.47912147 72.2250614 92.91601562 72.3671875 C92.05564697 72.42664551 91.19527832 72.48610352 90.30883789 72.54736328 C89.39030029 72.60263184 88.4717627 72.65790039 87.52539062 72.71484375 C76.32286775 73.60967768 66.36863984 75.82110144 55.84960938 79.81640625 C54.88788818 80.17911621 53.92616699 80.54182617 52.93530273 80.91552734 C51.04966494 81.63599001 49.17090725 82.37483417 47.30102539 83.13525391 C35.15347467 87.84033032 26.44147748 85.63103046 14.58789062 80.96484375 C0.55884479 75.7064695 -11.86978822 72.59957126 -26.93164062 72.18359375 C-29.72460938 71.77734375 -29.72460938 71.77734375 -31.38085938 70.6394043 C-33.33066136 67.93752571 -33.06410608 65.88160973 -33.01757812 62.578125 C-33.00791016 61.36962891 -32.99824219 60.16113281 -32.98828125 58.91601562 C-32.96314453 57.65337891 -32.93800781 56.39074219 -32.91210938 55.08984375 C-32.89857422 53.81560547 -32.88503906 52.54136719 -32.87109375 51.22851562 C-32.83569136 48.07770318 -32.78630727 44.9277333 -32.72460938 41.77734375 C-34.37460937 41.77734375 -36.02460937 41.77734375 -37.72460938 41.77734375 C-37.72460938 36.49734375 -37.72460938 31.21734375 -37.72460938 25.77734375 C-36.07460938 25.77734375 -34.42460938 25.77734375 -32.72460938 25.77734375 C-32.74031982 25.03572998 -32.75603027 24.29411621 -32.7722168 23.5300293 C-32.83451652 20.17504479 -32.87358444 16.82018189 -32.91210938 13.46484375 C-32.93724609 12.29759766 -32.96238281 11.13035156 -32.98828125 9.92773438 C-32.99794922 8.80947266 -33.00761719 7.69121094 -33.01757812 6.5390625 C-33.03328857 5.50740967 -33.04899902 4.47575684 -33.06518555 3.4128418 C-32.72460938 0.77734375 -32.72460938 0.77734375 -31.36108398 -1.05566406 C-24.30616986 -6.08661879 -7.93047556 -1.29111723 0 0 Z " fill="#EF99F6" transform="translate(78.724609375,112.22265625)"/>
<path d="M0 0 C7.01150209 5.0213953 12.4785724 11.249798 14.765625 19.67578125 C16.42673753 31.22446835 13.58024916 39.04901829 7.765625 48.67578125 C8.33796875 48.91941406 8.9103125 49.16304687 9.5 49.4140625 C12.16996038 50.90095423 13.90391507 52.65662033 16.015625 54.86328125 C19.56505864 58.52436926 23.22628279 61.82344094 27.234375 64.97265625 C29.16576471 67.1208346 29.41951805 68.84924117 29.765625 71.67578125 C27.56640625 72.45703125 27.56640625 72.45703125 24.765625 72.67578125 C22.37109375 70.83203125 22.37109375 70.83203125 19.953125 68.17578125 C14.59224734 62.47934939 9.06193577 57.32173743 2.765625 52.67578125 C1.033125 53.60390625 1.033125 53.60390625 -0.734375 54.55078125 C-8.42240274 58.35433182 -17.32054677 60.63780251 -25.73046875 57.84765625 C-27.95297973 56.86960544 -30.09218794 55.81772532 -32.234375 54.67578125 C-33.5666661 54.00703417 -34.89986185 53.34008305 -36.234375 52.67578125 C-38.98535255 55.25807524 -41.73498272 57.84179956 -44.484375 60.42578125 C-45.26167969 61.15539062 -46.03898437 61.885 -46.83984375 62.63671875 C-47.97099609 63.70019531 -47.97099609 63.70019531 -49.125 64.78515625 C-50.16188965 65.7592041 -50.16188965 65.7592041 -51.21972656 66.75292969 C-52.62653299 68.09563539 -53.97982814 69.49567336 -55.28808594 70.93457031 C-56.25149902 71.79646973 -56.25149902 71.79646973 -57.234375 72.67578125 C-60.484375 72.42578125 -60.484375 72.42578125 -63.234375 71.67578125 C-62.68124121 67.78628491 -60.95308507 66.04908102 -58.171875 63.36328125 C-57.36363281 62.58082031 -56.55539063 61.79835938 -55.72265625 60.9921875 C-52.85591244 58.32346053 -49.94238329 55.72334387 -46.9609375 53.18359375 C-45.2039633 51.69782027 -45.2039633 51.69782027 -43.6328125 49.98046875 C-42.234375 48.67578125 -42.234375 48.67578125 -40.234375 48.67578125 C-40.57210937 48.15628906 -40.90984375 47.63679688 -41.2578125 47.1015625 C-41.70382813 46.40417969 -42.14984375 45.70679688 -42.609375 44.98828125 C-43.27066406 43.96154297 -43.27066406 43.96154297 -43.9453125 42.9140625 C-48.27344724 35.39884672 -48.21010117 27.12935874 -47.234375 18.67578125 C-45.18770949 11.23163041 -40.28319133 5.35281245 -34.234375 0.67578125 C-23.34480483 -5.5033334 -11.07034458 -6.560921 0 0 Z " fill="#FB00FB" transform="translate(129.234375,32.32421875)"/>
<path d="M0 0 C0 20.13 0 40.26 0 61 C-9.9 61.99 -9.9 61.99 -20 63 C-24.83035299 64.18640249 -29.31999003 65.41795315 -34 67 C-35.57266644 67.52028823 -37.14560017 68.03976894 -38.71875 68.55859375 C-42.52494427 69.81802399 -46.323027 71.09967112 -50.11572266 72.39916992 C-52.05236665 73.01669789 -54.02797667 73.50699417 -56 74 C-56 53.54 -56 33.08 -56 12 C-41.77028336 6.0709514 -41.77028336 6.0709514 -35.6875 4.3125 C-34.97311768 4.10536377 -34.25873535 3.89822754 -33.52270508 3.68481445 C-22.31118116 0.56768138 -11.69212203 0 0 0 Z " fill="#EF99F6" transform="translate(172,117)"/>
<path d="M0 0 C9.70561728 1.70068218 18.8682862 4.09820284 27.73632812 8.4921875 C33.96208258 10.75297471 38.89387947 8.67987778 44.7824707 6.40258789 C60.47606868 0.34742869 80.30368212 -4.91773442 97.27539062 -2.22265625 C98.92773438 -1.05566406 98.92773438 -1.05566406 100.27539062 0.77734375 C100.6159668 3.4128418 100.6159668 3.4128418 100.56835938 6.5390625 C100.55869141 7.65732422 100.54902344 8.77558594 100.5390625 9.92773438 C100.51392578 11.09498047 100.48878906 12.26222656 100.46289062 13.46484375 C100.44935547 14.64369141 100.43582031 15.82253906 100.421875 17.03710938 C100.38648388 19.95097786 100.33710872 22.8639332 100.27539062 25.77734375 C101.92539063 25.77734375 103.57539063 25.77734375 105.27539062 25.77734375 C105.27539062 31.05734375 105.27539062 36.33734375 105.27539062 41.77734375 C103.62539062 41.77734375 101.97539062 41.77734375 100.27539062 41.77734375 C100.2989563 42.98064331 100.2989563 42.98064331 100.32299805 44.20825195 C100.38527645 47.83537779 100.42435926 51.46239124 100.46289062 55.08984375 C100.48802734 56.35248047 100.51316406 57.61511719 100.5390625 58.91601562 C100.55356445 60.72875977 100.55356445 60.72875977 100.56835938 62.578125 C100.59192505 64.25128784 100.59192505 64.25128784 100.6159668 65.95825195 C100.27539062 68.77734375 100.27539062 68.77734375 99.02954102 70.62792969 C96.87720407 72.03825708 95.47912147 72.2250614 92.91601562 72.3671875 C92.05564697 72.42664551 91.19527832 72.48610352 90.30883789 72.54736328 C89.39030029 72.60263184 88.4717627 72.65790039 87.52539062 72.71484375 C76.32286775 73.60967768 66.36863984 75.82110144 55.84960938 79.81640625 C54.88788818 80.17911621 53.92616699 80.54182617 52.93530273 80.91552734 C51.04966494 81.63599001 49.17090725 82.37483417 47.30102539 83.13525391 C35.15347467 87.84033032 26.44147748 85.63103046 14.58789062 80.96484375 C0.55884479 75.7064695 -11.86978822 72.59957126 -26.93164062 72.18359375 C-29.72460938 71.77734375 -29.72460938 71.77734375 -31.38085938 70.6394043 C-33.33066136 67.93752571 -33.06410608 65.88160973 -33.01757812 62.578125 C-33.00791016 61.36962891 -32.99824219 60.16113281 -32.98828125 58.91601562 C-32.96314453 57.65337891 -32.93800781 56.39074219 -32.91210938 55.08984375 C-32.89857422 53.81560547 -32.88503906 52.54136719 -32.87109375 51.22851562 C-32.83569136 48.07770318 -32.78630727 44.9277333 -32.72460938 41.77734375 C-34.37460937 41.77734375 -36.02460937 41.77734375 -37.72460938 41.77734375 C-37.72460938 36.49734375 -37.72460938 31.21734375 -37.72460938 25.77734375 C-36.07460938 25.77734375 -34.42460938 25.77734375 -32.72460938 25.77734375 C-32.74031982 25.03572998 -32.75603027 24.29411621 -32.7722168 23.5300293 C-32.83451652 20.17504479 -32.87358444 16.82018189 -32.91210938 13.46484375 C-32.93724609 12.29759766 -32.96238281 11.13035156 -32.98828125 9.92773438 C-32.99794922 8.80947266 -33.00761719 7.69121094 -33.01757812 6.5390625 C-33.03328857 5.50740967 -33.04899902 4.47575684 -33.06518555 3.4128418 C-32.72460938 0.77734375 -32.72460938 0.77734375 -31.36108398 -1.05566406 C-24.30616986 -6.08661879 -7.93047556 -1.29111723 0 0 Z M-25.72460938 4.77734375 C-25.72460938 24.90734375 -25.72460938 45.03734375 -25.72460938 65.77734375 C-19.45460938 66.43734375 -13.18460938 67.09734375 -6.72460938 67.77734375 C3.05443307 69.99611809 12.33389739 73.08412028 21.75170898 76.4909668 C22.57034424 76.78656494 23.38897949 77.08216309 24.23242188 77.38671875 C24.96436768 77.65452148 25.69631348 77.92232422 26.45043945 78.19824219 C28.27400628 78.87816423 28.27400628 78.87816423 30.27539062 78.77734375 C30.27539062 58.31734375 30.27539062 37.85734375 30.27539062 16.77734375 C10.99545454 8.74403705 -4.92010295 4.77734375 -25.72460938 4.77734375 Z M57.58789062 9.08984375 C56.93602783 9.27828857 56.28416504 9.4667334 55.61254883 9.66088867 C49.25717595 11.60798312 43.4935941 14.18642563 37.27539062 16.77734375 C37.27539062 37.23734375 37.27539062 57.69734375 37.27539062 78.77734375 C40.41516287 77.99240069 43.34283619 77.10002567 46.38867188 76.03515625 C62.33293131 70.53334586 76.31905855 67.08167699 93.27539062 65.77734375 C93.27539062 45.64734375 93.27539062 25.51734375 93.27539062 4.77734375 C80.71768529 4.77734375 69.56525985 5.61698751 57.58789062 9.08984375 Z " fill="#070607" transform="translate(78.724609375,112.22265625)"/>
<path d="M0 0 C7.01150209 5.0213953 12.4785724 11.249798 14.765625 19.67578125 C16.42673753 31.22446835 13.58024916 39.04901829 7.765625 48.67578125 C8.33796875 48.91941406 8.9103125 49.16304687 9.5 49.4140625 C12.16996038 50.90095423 13.90391507 52.65662033 16.015625 54.86328125 C19.56505864 58.52436926 23.22628279 61.82344094 27.234375 64.97265625 C29.16576471 67.1208346 29.41951805 68.84924117 29.765625 71.67578125 C27.56640625 72.45703125 27.56640625 72.45703125 24.765625 72.67578125 C22.37109375 70.83203125 22.37109375 70.83203125 19.953125 68.17578125 C14.59224734 62.47934939 9.06193577 57.32173743 2.765625 52.67578125 C1.033125 53.60390625 1.033125 53.60390625 -0.734375 54.55078125 C-8.42240274 58.35433182 -17.32054677 60.63780251 -25.73046875 57.84765625 C-27.95297973 56.86960544 -30.09218794 55.81772532 -32.234375 54.67578125 C-33.5666661 54.00703417 -34.89986185 53.34008305 -36.234375 52.67578125 C-38.98535255 55.25807524 -41.73498272 57.84179956 -44.484375 60.42578125 C-45.26167969 61.15539062 -46.03898437 61.885 -46.83984375 62.63671875 C-47.97099609 63.70019531 -47.97099609 63.70019531 -49.125 64.78515625 C-50.16188965 65.7592041 -50.16188965 65.7592041 -51.21972656 66.75292969 C-52.62653299 68.09563539 -53.97982814 69.49567336 -55.28808594 70.93457031 C-56.25149902 71.79646973 -56.25149902 71.79646973 -57.234375 72.67578125 C-60.484375 72.42578125 -60.484375 72.42578125 -63.234375 71.67578125 C-62.68124121 67.78628491 -60.95308507 66.04908102 -58.171875 63.36328125 C-57.36363281 62.58082031 -56.55539063 61.79835938 -55.72265625 60.9921875 C-52.85591244 58.32346053 -49.94238329 55.72334387 -46.9609375 53.18359375 C-45.2039633 51.69782027 -45.2039633 51.69782027 -43.6328125 49.98046875 C-42.234375 48.67578125 -42.234375 48.67578125 -40.234375 48.67578125 C-40.57210937 48.15628906 -40.90984375 47.63679688 -41.2578125 47.1015625 C-41.70382813 46.40417969 -42.14984375 45.70679688 -42.609375 44.98828125 C-43.27066406 43.96154297 -43.27066406 43.96154297 -43.9453125 42.9140625 C-48.27344724 35.39884672 -48.21010117 27.12935874 -47.234375 18.67578125 C-45.18770949 11.23163041 -40.28319133 5.35281245 -34.234375 0.67578125 C-23.34480483 -5.5033334 -11.07034458 -6.560921 0 0 Z M-37.015625 12.8671875 C-41.12094444 18.95937628 -42.15639176 24.50334857 -41.234375 31.67578125 C-39.38541018 39.82355291 -35.06186968 44.9782807 -28.234375 49.67578125 C-21.80645988 52.86880098 -14.18092952 52.88347006 -7.375 50.80078125 C-0.04437445 47.42425069 4.80298619 42.83583031 7.640625 35.23828125 C9.71776892 27.94354961 9.33417013 21.43295036 5.765625 14.67578125 C1.91422656 8.54913422 -3.3436633 4.82439602 -10.234375 2.67578125 C-21.47035649 0.99856557 -30.02170022 3.83336799 -37.015625 12.8671875 Z " fill="#060406" transform="translate(129.234375,32.32421875)"/>
<path d="M0 0 C1.03125 0.61875 2.0625 1.2375 3.125 1.875 C10.83113094 6.21258268 17.76593032 7.27689617 26.39453125 5.171875 C31.1036509 3.75543946 35.65526481 2.32978554 40 0 C40.556875 0.56847656 41.11375 1.13695313 41.6875 1.72265625 C46.61511094 6.70853286 51.65189019 11.46795054 57 16 C53.13682244 20.31501119 49.26471118 22.70956654 44.0625 25.1875 C43.02706055 25.70086914 43.02706055 25.70086914 41.97070312 26.22460938 C30.53288144 31.808001 17.40422642 33.36607035 4.8984375 30.08984375 C-13.50323896 23.74514155 -13.50323896 23.74514155 -18 17 C-12.19539034 11.08833812 -6.33480354 5.34388455 0 0 Z " fill="#FC01FC" transform="translate(93,84)"/>
</svg>
